<?xml version="1.0" encoding="iso-8859-1"?><!-- Generator: Adobe Illustrator 22.1.0, SVG Export Plug-In . SVG Version: 6.00 Build 0)  --><svg xmlns="http://www.w3.org/2000/svg" xmlns:xlink="http://www.w3.org/1999/xlink" viewBox="0 0 100 100" width="100px" height="100px"><g><circle style="fill:#78A2D2;" cx="50" cy="50" r="35"/></g><g><path style="fill:#1F212B;" d="M77.237,64.039c-0.074,0-0.148-0.017-0.219-0.051c-0.248-0.121-0.352-0.42-0.23-0.668   c0.198-0.408,0.388-0.819,0.566-1.233c0.694-1.612,1.247-3.299,1.643-5.014c0.063-0.27,0.328-0.438,0.6-0.375   c0.27,0.063,0.437,0.331,0.375,0.6c-0.409,1.773-0.981,3.518-1.699,5.185c-0.185,0.429-0.38,0.854-0.586,1.275   C77.601,63.936,77.422,64.039,77.237,64.039z"/></g><g><path style="fill:#1F212B;" d="M80.383,53.394c-0.016,0-0.03-0.001-0.045-0.002c-0.275-0.024-0.479-0.268-0.454-0.542   c0.058-0.647,0.095-1.296,0.111-1.944c0.102-4.025-0.589-7.962-2.051-11.703c-0.101-0.257,0.026-0.547,0.284-0.648   c0.257-0.101,0.547,0.027,0.647,0.284c1.511,3.866,2.224,7.934,2.119,12.093c-0.017,0.67-0.056,1.34-0.115,2.007   C80.856,53.198,80.639,53.394,80.383,53.394z"/></g><g><path style="fill:#1F212B;" d="M27.735,29.728c-0.123,0-0.245-0.044-0.341-0.135c-0.202-0.188-0.212-0.504-0.024-0.707   c5.049-5.408,11.882-8.824,19.238-9.618c0.277-0.023,0.521,0.169,0.551,0.443c0.03,0.274-0.169,0.521-0.443,0.551   c-7.118,0.768-13.729,4.073-18.614,9.306C28.002,29.675,27.869,29.728,27.735,29.728z"/></g><g><path style="fill:#1F212B;" d="M29.278,72.784c-0.123,0-0.245-0.045-0.341-0.135c-10.553-9.853-12.957-25.46-5.845-37.955   c0.136-0.24,0.441-0.325,0.682-0.187c0.24,0.137,0.324,0.442,0.187,0.682c-6.881,12.09-4.554,27.194,5.659,36.729   c0.202,0.188,0.212,0.505,0.024,0.706C29.545,72.73,29.412,72.784,29.278,72.784z"/></g><g><path style="fill:#1F212B;" d="M63.348,78.001c-0.186,0-0.364-0.104-0.45-0.283c-0.12-0.248-0.016-0.547,0.233-0.667   c3.324-1.603,6.3-3.796,8.843-6.519c1.025-1.1,1.974-2.28,2.817-3.51c0.156-0.227,0.468-0.285,0.695-0.129s0.285,0.467,0.129,0.695   c-0.871,1.271-1.851,2.49-2.911,3.625c-2.628,2.814-5.702,5.081-9.14,6.737C63.495,77.985,63.421,78.001,63.348,78.001z"/></g><g><path style="fill:#FEFDEF;" d="M44.5,84V59.5h-9v-9h9l0-8.971c-0.195-8.049,5.897-15.88,20-11.538L64.471,38.5l-4.901-0.032   c-3.77,0-5.069,1.246-5.069,3.962v8.07h10.776l-1.894,9H54.5V84"/><path style="fill:#1F212B;" d="M55,84h-1V59h8.977l1.683-8H54v-8.57c0-3.128,1.666-4.462,5.569-4.462l4.403,0.029l0.026-7.634   c-6.137-1.817-11.193-1.399-14.641,1.211c-2.87,2.174-4.458,5.798-4.358,9.943V51h-9v8h9v25h-1V60h-9V50h9v-8.471   c-0.108-4.459,1.625-8.382,4.754-10.752c2.636-1.996,7.534-3.836,15.893-1.264l0.354,0.109l-0.032,9.381l-5.402-0.036   c-3.802,0-4.566,1.325-4.566,3.462V50h10.892l-2.104,10H55V84z"/></g><g><path style="fill:#1F212B;" d="M50,86c-19.851,0-36-16.149-36-36s16.149-36,36-36s36,16.149,36,36S69.851,86,50,86z M50,16   c-18.748,0-34,15.252-34,34c0,18.748,15.252,34,34,34c18.748,0,34-15.252,34-34C84,31.252,68.748,16,50,16z"/></g></svg>